<svg version="1.1" xmlns="http://www.w3.org/2000/svg" xmlns:xlink="http://www.w3.org/1999/xlink" width="512px" height="512px" viewBox="0,0,256,256"><g fill="#ff9a08" fill-rule="nonzero" stroke="none" stroke-width="1" stroke-linecap="butt" stroke-linejoin="miter" stroke-miterlimit="10" stroke-dasharray="" stroke-dashoffset="0" font-family="none" font-weight="none" font-size="none" text-anchor="none" style="mix-blend-mode: normal"><g transform="scale(0.5,0.5)"><path d="M0,128c0,-35.35 28.65,-64 64,-64h384c35.3,0 64,28.65 64,64v256c0,35.3 -28.7,64 -64,64h-384c-35.35,0 -64,-28.7 -64,-64zM48,128v22.1l172.5,141.6c20.6,17 50.4,17 71,0l172.5,-141.6v-23c0,-7.9 -7.2,-16 -16,-16h-384c-8.84,0 -16,8.1 -16,16zM48,212.2v171.8c0,8.8 7.16,16 16,16h384c8.8,0 16,-7.2 16,-16v-171.8l-142,116.6c-38.4,31.5 -93.6,31.5 -132.9,0z"></path></g></g></svg>