<svg version="1.1" xmlns="http://www.w3.org/2000/svg" xmlns:xlink="http://www.w3.org/1999/xlink" width="448px" height="512px" viewBox="0,0,224,256"><g fill="#ff9a08" fill-rule="nonzero" stroke="none" stroke-width="1" stroke-linecap="butt" stroke-linejoin="miter" stroke-miterlimit="10" stroke-dasharray="" stroke-dashoffset="0" font-family="none" font-weight="none" font-size="none" text-anchor="none" style="mix-blend-mode: normal"><g transform="translate(0,15.9975) scale(0.5,0.5)"><path d="M100.28,448h-92.88v-299.1h92.88zM53.79,108.1c-29.7,0 -53.79,-24.6 -53.79,-54.3c0,-29.7074 24.0826,-53.79 53.79,-53.79c29.7074,0 53.79,24.0826 53.79,53.79c0,29.7 -24.1,54.3 -53.79,54.3zM447.9,448h-92.68v-145.6c0,-34.7 -0.7,-79.2 -48.29,-79.2c-48.29,0 -55.69,37.7 -55.69,76.7v148.1h-92.78v-299.1h89.08v40.8h1.3c12.4,-23.5 42.69,-48.3 87.88,-48.3c94,0 111.28,61.9 111.28,142.3v164.3z"></path></g></g></svg>